# xmcd
#
# Track frame offsets: 
#        150
#        5175
#        106602
#        173396
#
# Disc length: 4173 seconds
#
# Revision: 0
# Processed by: cddbd v1.5.2PL0 Copyright (c) Steve Scherf et al.
# Submitted via: ExactAudioCopyFreeDBPlugin 1.0
#
DISCID=20104b04
DTITLE=杜煥 - 訴衷情
DYEAR=1975
DGENRE=
TTITLE0=曲前賀詞
TTITLE1=男燒衣
TTITLE2=嘆五更(又名：何惠群嘆五更)
TTITLE3=霸王別姬
EXTD=
EXTT0=
EXTT1=
EXTT2=
EXTT3=
PLAYORDER=
